<?xml version="1.0" standalone="no"?>
<!DOCTYPE svg PUBLIC "-//W3C//DTD SVG 1.1//EN" "http://www.w3.org/Graphics/SVG/1.1/DTD/svg11.dtd" >
<svg xmlns="http://www.w3.org/2000/svg">
<metadata>
This is a custom SVG webfont generated by Font Squirrel.
Copyright   : Copyright 2010 Canonical Ltd  Licensed under the Ubuntu Font Licence 10
Designer    : Dalton Maag Ltd
Foundry     : Dalton Maag Ltd
Foundry URL : httpwwwdaltonmaagcom
</metadata>
<defs>
<font id="UbuntuRegular" horiz-adv-x="505" >
<font-face units-per-em="896" ascent="717" descent="-179" />
<missing-glyph horiz-adv-x="206" />
<glyph unicode=" "  horiz-adv-x="206" />
<glyph unicode="&#x09;" horiz-adv-x="206" />
<glyph unicode="&#xa0;" horiz-adv-x="206" />
<glyph unicode="!" horiz-adv-x="247" d="M64 48q0 24 16 42t44 18t44 -17.5t16 -42.5q0 -24 -16.5 -42t-43.5 -18q-28 0 -44 18t-16 42zM79 452v169h89v-169q0 -75 -5 -136.5t-13 -121.5h-52q-8 61 -13.5 122t-5.5 136z" />
<glyph unicode="&#x22;" horiz-adv-x="374" d="M65 637v44h86v-45q0 -44 -5 -92t-13 -95h-50q-8 47 -13 95t-5 93zM224 637v44h86v-45q0 -44 -5 -92t-13 -95h-50q-8 47 -13 95t-5 93z" />
<glyph unicode="#" horiz-adv-x="597" d="M44 164v66h91l31 161h-122v66h135l32 164h75l-32 -164h146l31 164h75l-31 -164h79v-66h-93l-30 -161h123v-66h-136l-31 -164h-75l31 164h-145l-31 -164h-76l32 164h-79zM211 230h145l31 161h-145z" />
<glyph unicode="$" d="M55 52l22 67q27 -13 64.5 -23.5t93.5 -10.5q69 0 96.5 22t27.5 56q0 25 -12 43t-32 31.5t-46.5 24t-54.5 20.5q-27 10 -53.5 22t-47 29.5t-33.5 42.5t-13 60q0 64 38 105t111 51v103h74v-100q39 -2 73.5 -10t54.5 -15l-17 -70q-22 8 -54.5 16.5t-80.5 8.5 q-54 0 -83 -20.5t-29 -58.5q0 -21 8.5 -35t24.5 -25t38 -20t49 -19q35 -13 66.5 -27.5t55 -35t38 -48t14.5 -67.5q0 -64 -38.5 -102.5t-119.5 -48.5v-116h-74v113q-63 2 -102 14t-59 23z" />
<glyph unicode="%" horiz-adv-x="768" d="M45 470q0 40 10.5 70.5t30 51.5t45.5 31.5t56 10.5t56.5 -10.5t45.5 -31.5t30 -51.5t11 -70.5t-11 -71t-30 -52t-45 -31.5t-57 -10.5q-30 0 -56 10.5t-45.5 31.5t-30 52t-10.5 71zM115 470q0 -48 18.5 -76t53.5 -28t54 27.5t19 76.5q0 48 -19 75.5t-54 27.5t-53.5 -27.5 t-18.5 -75.5zM168 0l351 621h81l-350 -621h-82zM439 151q0 40 11 71t30 52t45 31.5t57 10.5q30 0 56 -10.5t45 -31.5t30 -51.5t11 -71.5q0 -40 -11 -70.5t-30 -51.5t-45 -31.5t-56 -10.5t-56.5 10.5t-45.5 31.5t-30 51.5t-11 70.5zM509 151q0 -48 19 -75.5t54 -27.5 t53.5 27.5t18.5 75.5t-19 75.5t-53 27.5q-35 0 -54 -27.5t-19 -75.5z" />
<glyph unicode="&#x26;" horiz-adv-x="596" d="M41 165q0 35 11 62t29 49t42.5 39t50.5 29q-66 66 -66 137q0 36 12 64.5t33 48.5t50 30.5t64 10.5q36 0 64 -10.5t47.5 -28.5t29.5 -43t10 -53q0 -31 -10.5 -56.5t-28 -46t-40 -37.5t-47.5 -30l145 -148q30 56 40 125l69 -9q-4 -37 -18.5 -80t-41.5 -86 q31 -34 57.5 -67.5t43.5 -64.5h-88q-11 18 -26 37l-33 37q-37 -37 -85.5 -59.5t-110.5 -22.5q-58 0 -97 16.5t-62.5 42t-33.5 56t-10 58.5zM125 167q0 -16 6 -35t20.5 -34.5t37 -26t57.5 -10.5q44 0 81 16t65 46l-174 176q-16 -8 -33 -18.5t-30 -26.5t-21.5 -37t-8.5 -50z M185 487q0 -58 61 -113q20 10 37.5 21.5t30.5 26.5t20.5 33.5t7.5 41.5q0 30 -20 51.5t-55 21.5q-39 0 -60.5 -24t-21.5 -59z" />
<glyph unicode="'" horiz-adv-x="215" d="M65 637v44h86v-45q0 -44 -5 -92t-13 -95h-50q-8 47 -13 95t-5 93z" />
<glyph unicode="(" horiz-adv-x="290" d="M70 268q0 127 42.5 237.5t112.5 196.5l59 -41q-65 -83 -98 -180.5t-33 -212.5t33.5 -212.5t97.5 -180.5l-59 -41q-70 85 -112.5 196t-42.5 238z" />
<glyph unicode=")" horiz-adv-x="290" d="M6 -125q65 83 98 180.5t33 212.5t-33 212.5t-98 180.5l59 41q70 -85 112.5 -196t42.5 -238t-42.5 -238t-112.5 -196z" />
<glyph unicode="*" horiz-adv-x="430" d="M33 461l25 76l6 -2q37 -13 68 -30l63 -35l-14 72q-7 34 -6 72v7h80v-7q0 -38 -6 -72l-14 -72l63 35q31 17 68 30l6 2l25 -76l-7 -2q-36 -13 -72 -17.5t-73 -6.5l55 -49q26 -24 49 -55l4 -7l-65 -45l-4 5q-22 32 -37 64l-32 66l-32 -66q-16 -32 -37 -64l-4 -5l-65 45l5 7 q22 31 48 55l55 49q-38 3 -73.5 6.5t-71.5 17.5z" />
<glyph unicode="+" d="M47 233v71h170v184h72v-184h169v-71h-169v-186h-72v186h-170z" />
<glyph unicode="," horiz-adv-x="220" d="M34 -122q22 46 29.5 93t7.5 88q0 12 -0.5 22.5t-1.5 20.5h90q1 -7 1 -14v-14q0 -56 -16.5 -111t-44.5 -105z" />
<glyph unicode="-" horiz-adv-x="267" d="M23 229v78h222v-78h-222z" />
<glyph unicode="." horiz-adv-x="220" d="M50 48q0 24 16 42t44 18t44 -17.5t16 -42.5q0 -24 -16 -42t-44 -18t-44 18t-16 42z" />
<glyph unicode="/" horiz-adv-x="344" d="M-22 -166l304 868h84l-302 -868h-86z" />
<glyph unicode="0" d="M45 311q0 156 55 240t153 84t153 -84t55 -240t-55.5 -240t-152.5 -84q-98 0 -153 84t-55 240zM133 311q0 -51 5.5 -97t19.5 -80t37.5 -54t57.5 -20t57 20t37 54t20 80t6 97t-6 96.5t-20 79.5t-37 54.5t-57 20.5t-57.5 -20.5t-37.5 -54.5t-19.5 -79.5t-5.5 -96.5z" />
<glyph unicode="1" d="M83 493q51 20 99.5 50.5t88.5 77.5h60v-621h-84v505q-11 -10 -26.5 -20.5t-34 -20.5t-38.5 -19t-39 -15z" />
<glyph unicode="2" d="M50 561q8 9 24 22t38.5 24.5t50.5 19.5t60 8q98 0 146.5 -45t48.5 -128q0 -32 -13 -62t-34.5 -59t-47.5 -57l-54 -56l-36 -35q-20 -21 -38 -43.5t-30 -43t-12 -35.5h286v-71h-376q-1 5 -1 11v10q0 42 14 78t36 68.5t50 60.5l55 56l42 43q20 21 36 42t25.5 43.5t9.5 47.5 q0 27 -8.5 45.5t-23 31t-33.5 18.5t-41 6q-26 0 -47.5 -7t-38.5 -16.5t-29 -20.5l-18 -15z" />
<glyph unicode="3" d="M49 19l16 72q15 -7 50.5 -18.5t86.5 -11.5q80 0 114.5 31.5t34.5 84.5q0 34 -14 57t-37.5 37t-54.5 20t-63 6h-22v68h30q22 0 46 4.5t43.5 16t32 31.5t12.5 51q0 25 -9 43t-23.5 29.5t-34 16.5t-40.5 5q-43 0 -73 -12.5t-51 -26.5l-32 64q11 7 27.5 15.5t37 15.5t44.5 12 t50 5q49 0 84.5 -12t59 -34t35 -52t11.5 -65q0 -48 -27.5 -82.5t-67.5 -52.5q24 -7 46.5 -20.5t39.5 -34t27 -47.5t10 -60q0 -40 -14 -75t-43 -60t-73 -39t-104 -14q-23 0 -47.5 3.5t-46 8.5t-38 10.5t-23.5 9.5z" />
<glyph unicode="4" d="M36 159v56q17 39 46.5 91.5t66.5 108t79.5 109.5t85.5 97h80v-394h74v-68h-74v-159h-80v159h-278zM116 227h198v295q-27 -29 -54.5 -64t-53.5 -73.5t-49 -78.5t-41 -79z" />
<glyph unicode="5" d="M58 19l16 72q15 -7 50 -18.5t85 -11.5q40 0 67.5 9t44.5 24t24.5 35.5t7.5 42.5q0 34 -11.5 60.5t-41 44.5t-79 27.5t-124.5 9.5q5 44 8 82.5l6 75t4.5 73t3.5 76.5h299v-71h-226q-1 -13 -3 -36l-4 -48l-3 -48q-2 -23 -4 -36q135 -5 198.5 -59t63.5 -146q0 -41 -14 -76.5 t-42 -60.5t-71 -39t-102 -14q-23 0 -47.5 3.5t-45 8.5t-37 10.5t-23.5 9.5z" />
<glyph unicode="6" d="M56 249q0 90 25.5 159.5t71.5 117t112 72.5t148 26l6 -70q-53 -1 -96 -12t-77.5 -34t-57.5 -60.5t-35 -91.5q23 11 52.5 18t60.5 7q53 0 89.5 -16t60 -42.5t34 -61t10.5 -72.5q0 -34 -12 -70t-35.5 -65.5t-60.5 -48t-87 -18.5q-102 0 -155.5 69.5t-53.5 192.5zM143 249 q0 -39 5.5 -74t19.5 -61.5t37 -42t59 -15.5q30 0 50.5 12.5t34 32t19.5 42.5t6 44q0 61 -29.5 93.5t-87.5 32.5q-31 0 -58 -6t-54 -18q-1 -10 -1.5 -20t-0.5 -20z" />
<glyph unicode="7" d="M54 548v73h395v-69q-30 -34 -65.5 -93.5t-67.5 -133.5t-55 -158t-28 -167h-87q5 72 25.5 151t50 154t65 139t69.5 104h-302z" />
<glyph unicode="8" d="M49 157q0 26 8.5 49.5t22.5 44t32.5 37.5t38.5 29q-88 50 -87 148q0 34 13 65t38 54t60 37t78 14q50 0 86 -15t58.5 -39t33 -52.5t10.5 -55.5q0 -26 -7.5 -49t-20.5 -42.5t-30 -34.5t-34 -27q106 -50 107 -159q0 -38 -13 -69.5t-38.5 -55t-64 -36.5t-88.5 -13 q-58 0 -97 16.5t-62.5 41.5t-33.5 55t-10 57zM134 156q0 -16 5.5 -33.5t20 -32.5t37 -24.5t56.5 -9.5q30 0 53 8.5t37.5 22.5t21.5 32t7 37q0 29 -11 50.5t-31 37.5t-48 27t-64 19q-40 -22 -62 -55t-22 -79zM147 471q0 -20 7 -39.5t22.5 -36.5t40 -30.5t58.5 -21.5 q38 22 60.5 52.5t22.5 78.5q0 13 -6 29.5t-18.5 30t-32.5 23t-48 9.5q-29 0 -49 -9t-32.5 -22.5t-18.5 -30.5t-6 -33z" />
<glyph unicode="9" d="M46 434q0 33 11.5 68.5t35 65.5t60.5 48.5t87 18.5q51 0 90 -18t65.5 -52t40 -82.5t13.5 -109.5q0 -185 -92 -279.5t-273 -95.5l-2 70q56 0 101 11t79.5 34.5t57 61t33.5 92.5q-23 -11 -52.5 -17.5t-61.5 -6.5q-53 0 -89.5 15.5t-60 42t-33.5 61t-10 72.5zM132 435 q0 -61 29 -92.5t87 -31.5q31 0 59 6t54 17q1 10 1 19v20q0 39 -5.5 74t-19.5 61.5t-37 42t-59 15.5q-30 0 -50.5 -12.5t-34 -31.5t-19 -42t-5.5 -45z" />
<glyph unicode=":" horiz-adv-x="220" d="M50 48q0 24 16 42t44 18t44 -17.5t16 -42.5q0 -24 -16 -42t-44 -18t-44 18t-16 42zM50 406q0 24 16 42t44 18t44 -17.5t16 -42.5q0 -24 -16 -42t-44 -18t-44 18t-16 42z" />
<glyph unicode=";" horiz-adv-x="220" d="M34 -122q22 46 29.5 93t7.5 88q0 12 -0.5 22.5t-1.5 20.5h90q1 -7 1 -14v-14q0 -56 -16.5 -111t-44.5 -105zM50 406q0 24 16 42t44 18t44 -17.5t16 -42.5q0 -24 -16 -42t-44 -18t-44 18t-16 42z" />
<glyph unicode="&#x3c;" d="M47 232v72l388 164l23 -69l-318 -131l318 -131l-23 -69z" />
<glyph unicode="=" d="M47 137v71h411v-71h-411zM47 328v71h411v-71h-411z" />
<glyph unicode="&#x3e;" d="M47 137l319 131l-319 131l24 69l387 -164v-72l-387 -164z" />
<glyph unicode="?" horiz-adv-x="361" d="M17 599q30 16 68.5 26t81.5 10q51 0 83.5 -14t52.5 -35.5t27.5 -47.5t7.5 -51q0 -30 -12 -54t-29 -44.5t-37.5 -39t-37.5 -39t-28.5 -44t-11.5 -53.5v-10q0 -5 1 -9h-70q-4 18 -4 37q0 29 10.5 52t26.5 43.5t34 38t34 35.5t26.5 37.5t10.5 42.5q0 38 -24.5 61.5 t-70.5 23.5q-59 0 -116 -30zM92 48q0 24 16.5 42t43.5 18q28 0 44 -17.5t16 -42.5q0 -24 -16 -42t-44 -18t-44 18t-16 42z" />
<glyph unicode="@" horiz-adv-x="851" d="M58 249q0 97 30.5 169.5t82 120.5t119.5 72t143 24q73 0 138.5 -23.5t115 -69t78 -109.5t28.5 -144q0 -61 -14 -108t-37 -78.5t-55.5 -47.5t-68.5 -16q-29 0 -47.5 8t-31.5 21q-20 -11 -47.5 -18.5t-55.5 -7.5q-43 0 -78 13.5t-61 40t-40.5 65t-14.5 89.5q0 43 13.5 81 t40 66.5t64.5 44.5t86 16q46 0 84 -7t59 -15v-274q0 -29 9.5 -40.5t26.5 -11.5q23 0 40.5 16t28.5 42t16.5 59t5.5 67q0 56 -20 106t-56.5 87.5t-89 59t-117.5 21.5t-120 -22t-94.5 -62.5t-61.5 -100t-22 -134.5q0 -79 23.5 -138.5t65 -99.5t98.5 -60t125 -20q53 0 87.5 6.5 t44.5 9.5l9 -66q-15 -5 -55 -11.5t-86 -6.5q-80 0 -150.5 23t-123.5 70t-84 120t-31 173zM326 250q0 -64 30.5 -101.5t82.5 -37.5q19 0 38 4t35 12q-3 12 -4 23.5t-1 22.5v210q-5 2 -20.5 4t-34.5 2q-64 0 -95 -39.5t-31 -99.5z" />
<glyph unicode="A" horiz-adv-x="594" d="M7 0l67 182l62 159l59 144l62 136h80l62 -136l59 -144l62 -159l67 -182h-95l-29 79l-28 80h-281l-56 -159h-91zM179 230h231l-57 151q-28 73 -58 140q-31 -67 -60 -140z" />
<glyph unicode="B" horiz-adv-x="576" d="M77 10v602q18 4 39.5 7t43.5 4.5t43.5 2.5t40.5 1q54 0 101 -8t81.5 -27t54 -50.5t19.5 -77.5q0 -51 -24 -83.5t-65 -48.5q55 -16 87 -51t32 -99q0 -93 -68.5 -140t-216.5 -47q-19 0 -41 0.5t-44 2.5t-43.5 5t-39.5 7zM163 71q10 -1 23 -2q12 -1 27.5 -1.5t36.5 -0.5 q39 0 73.5 5t60 17.5t41.5 35t16 56.5q0 30 -11.5 51.5t-33.5 34t-52.5 17.5t-68.5 5h-112v-218zM163 359h91q32 0 61 4.5t50 16.5t33 30.5t12 47.5q0 27 -12.5 45t-34.5 29.5t-51.5 17t-62.5 5.5t-52 -1t-34 -3v-192z" />
<glyph unicode="C" horiz-adv-x="555" d="M52 311q0 78 23.5 138.5t64 101.5t94.5 62.5t115 21.5q39 0 69.5 -5t53.5 -12.5t37 -14.5t20 -11l-25 -71q-8 5 -23.5 11t-35 12.5t-42 10.5t-45.5 4q-49 0 -89 -17t-67.5 -49t-42.5 -78.5t-15 -103.5q0 -56 13 -101.5t39 -78t65 -50.5t91 -18q60 0 99.5 12.5t59.5 22.5 l22 -72q-6 -4 -22 -11t-40.5 -13t-56.5 -10.5t-70 -4.5q-65 0 -119 21.5t-92.5 62.5t-59.5 101.5t-21 138.5z" />
<glyph unicode="D" horiz-adv-x="638" d="M77 10v602q37 9 82 12t83 3q76 0 139.5 -19t109.5 -58t71 -98.5t25 -140.5t-25 -140.5t-71 -98.5t-109.5 -58t-139.5 -19q-38 0 -83 3t-82 12zM164 73q8 -1 28 -1.5t57 -0.5q124 0 185 63t61 177t-61 177t-185 63q-37 0 -57 -1t-28 -2v-475z" />
<glyph unicode="E" horiz-adv-x="511" d="M77 0v621h379v-74h-292v-185h260v-73h-260v-215h314v-74h-401z" />
<glyph unicode="F" horiz-adv-x="481" d="M77 0v621h375v-74h-288v-188h255v-73h-255v-286h-87z" />
<glyph unicode="G" horiz-adv-x="602" d="M52 311q0 78 23.5 138.5t64 101.5t95 62.5t115.5 21.5q42 0 75 -5t56 -12.5t38 -14.5t20 -11l-27 -72q-26 17 -69 28t-88 11q-47 0 -86.5 -17t-66.5 -49t-42.5 -78.5t-15.5 -103.5q0 -56 13 -101.5t39.5 -78t65.5 -50.5t92 -18q38 0 64 4t38 7v232h87v-291q-11 -4 -31 -8 t-46.5 -8.5t-58 -8t-63.5 -3.5q-65 0 -119 21.5t-92.5 63t-59.5 101.5t-21 138z" />
<glyph unicode="H" horiz-adv-x="631" d="M77 0v621h87v-259h304v259h87v-621h-87v287h-304v-287h-87z" />
<glyph unicode="I" horiz-adv-x="241" d="M77 0v621h87v-621h-87z" />
<glyph unicode="J" horiz-adv-x="448" d="M7 37l34 69q19 -13 49 -28t75 -15q65 0 94.5 32.5t29.5 112.5v413h86v-421q0 -45 -9 -83.5t-33 -67.5t-64 -45.5t-100 -16.5q-30 0 -55.5 4.5t-46 12.5t-36 16.5t-24.5 16.5z" />
<glyph unicode="K" horiz-adv-x="563" d="M77 0v621h87v-274l69 67l74 74l70 72q33 34 55 61h105l-63 -68l-73 -76l-76 -76l-71 -70q39 -27 82 -66.5t84 -84.5t77.5 -91.5t60.5 -88.5h-102q-27 42 -62 84.5t-74 81.5t-78.5 72t-77.5 57v-295h-87z" />
<glyph unicode="L" horiz-adv-x="465" d="M77 0v621h87v-546h287v-75h-374z" />
<glyph unicode="M" horiz-adv-x="780" d="M60 0q4 81 8.5 163t10 161t12.5 154.5t15 142.5h76q24 -39 52 -93l55 -113l54 -117l48 -107l47 107l54 117l55 113q28 54 52 93h77q30 -300 45 -621h-85q-4 125 -10.5 248.5t-16.5 229.5q-9 -15 -23.5 -44l-31.5 -65l-37 -77l-36 -80l-32 -71l-23 -55h-70l-24 55l-32 71 l-36 80l-36 77q-17 36 -32 64.5l-24 44.5q-10 -106 -16 -229.5t-11 -248.5h-85z" />
<glyph unicode="N" horiz-adv-x="652" d="M77 0v621h69q42 -45 90 -104l95 -123l89 -124q42 -61 70 -109v460h85v-621h-72l-46 74l-55 86l-61 90l-63 88l-61 80l-55 67v-485h-85z" />
<glyph unicode="O" horiz-adv-x="697" d="M52 311q0 80 23.5 141t64.5 101.5t95 61t115 20.5q60 0 113.5 -20.5t94 -61t64 -101.5t23.5 -141t-23.5 -141t-64 -101.5t-94 -61t-113.5 -20.5q-61 0 -115 20.5t-95 61t-64.5 101.5t-23.5 141zM143 311q0 -56 14.5 -102.5t41 -78.5t64.5 -49.5t86 -17.5q47 0 84.5 17.5 t64 49.5t41 78t14.5 103q0 56 -14.5 102.5t-41 78.5t-64 49.5t-84.5 17.5t-85.5 -17.5t-65 -49.5t-41 -78.5t-14.5 -102.5z" />
<glyph unicode="P" horiz-adv-x="544" d="M77 0v612q37 9 82 12t83 3q131 0 201 -49.5t70 -148.5q0 -54 -19 -92t-55.5 -61.5t-88.5 -34.5t-117 -11h-69v-230h-87zM164 305h65q45 0 81 5.5t60.5 19.5t38 38t13.5 62q0 36 -14 59.5t-37.5 37t-55 19t-66.5 5.5q-56 0 -85 -3v-243z" />
<glyph unicode="Q" horiz-adv-x="697" d="M52 311q0 80 23.5 141t64.5 101.5t95 61t115 20.5q60 0 113.5 -20.5t94 -61t64 -101.5t23.5 -141q0 -70 -18 -124.5t-49.5 -94.5t-74 -64.5t-91.5 -33.5q1 -21 18.5 -36.5t44.5 -26.5t60 -18t66 -11l-20 -68q-47 6 -89.5 16.5t-77 27.5t-58 43.5t-31.5 65.5 q-56 4 -106.5 27t-87 63.5t-58 99t-21.5 134.5zM143 311q0 -56 14.5 -102.5t41 -78.5t64.5 -49.5t86 -17.5q47 0 84.5 17.5t64 49.5t41 78t14.5 103q0 56 -14.5 102.5t-41 78.5t-64 49.5t-84.5 17.5t-85.5 -17.5t-65 -49.5t-41 -78.5t-14.5 -102.5z" />
<glyph unicode="R" horiz-adv-x="563" d="M77 0v612q37 9 82 12t83 3q131 0 199.5 -49t68.5 -147q0 -62 -33 -106t-96 -65l36 -47q22 -29 45.5 -64.5t46 -74t38.5 -74.5h-95q-18 34 -39 69t-42.5 67t-42.5 59l-38 49q-12 -1 -23 -1h-25h-78v-243h-87zM164 314h62q45 0 80.5 4.5t60.5 17.5t38 35.5t13 60.5 q0 35 -13 58t-36 36.5t-54 19t-66 5.5q-56 0 -85 -3v-234z" />
<glyph unicode="S" horiz-adv-x="476" d="M30 30l26 72q21 -12 62.5 -26t102.5 -14q136 0 137 93q0 29 -12.5 49t-33 35t-47 25.5l-55.5 21.5q-34 12 -64.5 26.5t-53 34.5t-35.5 48t-13 67q0 82 55.5 127.5t153.5 45.5q56 0 102 -12t68 -26l-28 -71q-19 12 -56 23t-86 11q-25 0 -46.5 -5.5t-38 -16t-25.5 -27 t-9 -39.5q0 -25 9.5 -42t27.5 -30t42 -23.5t52 -21.5q40 -16 74 -32.5t58.5 -38.5t38 -53t13.5 -75q0 -82 -59.5 -125.5t-168.5 -43.5q-37 0 -67.5 4.5t-55 11.5t-41.5 14.5t-27 12.5z" />
<glyph unicode="T" horiz-adv-x="506" d="M14 546v75h478v-75h-195v-546h-87v546h-196z" />
<glyph unicode="U" horiz-adv-x="616" d="M73 231v390h86v-380q0 -93 41.5 -135t107.5 -42q33 0 60.5 10t47 31.5t30.5 55t11 80.5v380h87v-390q0 -52 -14 -96.5t-43 -77.5t-73.5 -51.5t-105.5 -18.5t-105.5 18.5t-73.5 51.5t-42.5 77.5t-13.5 96.5z" />
<glyph unicode="V" horiz-adv-x="587" d="M9 621h96l95 -272q47 -131 96 -246q49 114 96 245l94 273h93l-65 -182l-61 -159l-58 -144l-60 -136h-81l-60 136l-59 144l-62 159q-31 83 -64 182z" />
<glyph unicode="W" horiz-adv-x="832" d="M25 621h91l26 -140q13 -70 28 -136l29 -125q14 -60 29 -112l77 207q40 112 75 232h75q35 -120 76 -232l77 -207q14 50 28.5 110.5t28.5 126l28 136.5l26 140h88q-32 -179 -68.5 -331.5t-82.5 -289.5h-87l-77 199t-75 222q-38 -120 -77 -222l-77 -199h-86 q-47 137 -84 289.5t-68 331.5z" />
<glyph unicode="X" horiz-adv-x="565" d="M21 0q40 79 93 160l114 168l-199 293h100l153 -231l152 231h99l-195 -289l114 -170q54 -82 95 -162h-97q-13 27 -32 59.5l-42 68.5l-46 70l-47 67l-46 -67l-47 -70l-41 -68q-19 -33 -33 -60h-95z" />
<glyph unicode="Y" horiz-adv-x="535" d="M5 621h103q34 -73 76 -149t87 -146q44 70 86 145.5t77 149.5h96l-103 -182l-115 -188v-251h-87v249l-117 189z" />
<glyph unicode="Z" horiz-adv-x="513" d="M30 0v58q19 36 44 79l55 88l60 90l62 88l60 79q29 37 54 65h-319v74h425v-69l-48 -56l-57 -73l-63 -84l-63 -89q-31 -45 -59 -90t-50 -86h349v-74h-450z" />
<glyph unicode="[" horiz-adv-x="294" d="M86 -166v868h202v-66h-124v-736h124v-66h-202z" />
<glyph unicode="\" horiz-adv-x="344" d="M-22 702h84l304 -868h-86z" />
<glyph unicode="]" horiz-adv-x="294" d="M7 -100h124v736h-124v66h202v-868h-202v66z" />
<glyph unicode="^" d="M42 316l174 305h73l174 -305l-66 -34l-144 253l-145 -253z" />
<glyph unicode="_" horiz-adv-x="440" d="M-4 -95h448v-71h-448v71z" />
<glyph unicode="`" horiz-adv-x="336" d="M55 642l53 53l115 -138l-42 -37z" />
<glyph unicode="a" horiz-adv-x="467" d="M39 139q0 39 15.5 66.5t42.5 44.5t62.5 25t75.5 8q13 0 26 -1.5t25 -3.5l21 -4q9 -2 13 -3v24q0 21 -4.5 41t-16 35.5t-32 25t-52.5 9.5q-41 0 -72 -6t-46 -12l-10 69q16 7 53.5 14t81.5 7q50 0 84.5 -13t55.5 -37t30 -56.5t9 -72.5v-291l-30 -5q-19 -3 -43 -5.5 t-52.5 -5t-55.5 -2.5q-39 0 -72.5 8t-58 25.5t-37.5 46.5t-13 69zM123 140q0 -45 28.5 -62.5t77.5 -17.5q30 0 53 1.5t38 4.5v139q-9 4 -29 7.5t-49 3.5q-19 0 -40 -2.5t-38.5 -11t-29 -23.5t-11.5 -39z" />
<glyph unicode="b" horiz-adv-x="527" d="M72 13v668l83 14v-250q15 10 46 21t71 11q50 0 89.5 -18t66 -50.5t40.5 -77t14 -98.5q0 -56 -16.5 -101.5t-47 -77t-73.5 -48.5t-97 -17q-58 0 -102.5 8t-73.5 16zM155 73q13 -4 35.5 -7t56.5 -3q67 0 107.5 44t40.5 126q0 36 -7 67.5t-23 54t-42 35.5t-61 13 q-34 0 -63 -11.5t-44 -24.5v-294z" />
<glyph unicode="c" horiz-adv-x="416" d="M46 232q0 54 15.5 98.5t44 77.5t70.5 51.5t93 18.5q31 0 62.5 -5.5t60.5 -17.5l-19 -71q-19 9 -43.5 14.5t-52.5 5.5q-70 0 -107 -44t-37 -128q0 -38 8.5 -69t26.5 -53.5t47 -34.5t70 -12q33 0 60 6t42 13l12 -69q-7 -4 -20.5 -8.5t-30.5 -7.5t-36.5 -5.5t-37.5 -2.5 q-56 0 -98.5 18t-72 50.5t-43.5 76.5t-14 98z" />
<glyph unicode="d" horiz-adv-x="527" d="M46 233q0 54 13.5 98.5t40.5 77t66 50.5t89 18q40 0 71.5 -11t46.5 -21v236l83 14v-682q-29 -8 -73.5 -16t-102.5 -8q-54 0 -97 17t-73.5 48.5t-47 77t-16.5 101.5zM133 233q0 -82 40 -126t107 -44q34 0 57 3t36 7v294q-15 13 -44 24.5t-63 11.5q-36 0 -61.5 -13 t-41.5 -35.5t-23 -54t-7 -67.5z" />
<glyph unicode="e" horiz-adv-x="500" d="M46 232q0 62 18 108t47.5 76.5t68 46t78.5 15.5q94 0 144 -59t50 -179v-14v-15h-319q5 -73 41.5 -110.5t114.5 -37.5q44 0 74 7.5t46 14.5l11 -70q-15 -8 -53 -17t-87 -9q-61 0 -105 18.5t-73 50.5t-42.5 76.5t-13.5 97.5zM134 278h232q1 56 -28.5 92.5t-80.5 36.5 q-29 0 -50.5 -11.5t-37 -29t-24 -41t-11.5 -47.5z" />
<glyph unicode="f" horiz-adv-x="345" d="M72 0v508q0 90 43.5 138.5t138.5 48.5q37 0 63 -5t37 -10l-15 -72q-11 5 -30.5 10.5t-48.5 5.5q-58 0 -81.5 -32t-23.5 -86v-40h179v-70h-179v-396h-83z" />
<glyph unicode="g" horiz-adv-x="517" d="M46 243q0 51 15 93.5t44 73.5t71.5 48.5t94.5 17.5q58 0 102 -8.5t73 -15.5v-416q0 -108 -55.5 -156t-168.5 -48q-44 0 -83 7t-67 17l15 72q25 -10 61.5 -17.5t75.5 -7.5q74 0 107 29.5t33 94.5v20q-11 -7 -42 -18.5t-72 -11.5q-42 0 -79 13.5t-65 41.5t-44 70.5 t-16 100.5zM133 242q0 -40 10 -69t27.5 -47.5t40.5 -27.5t47 -9q33 0 61 9.5t44 21.5v272q-13 4 -34 7t-57 3q-67 0 -103 -43.5t-36 -116.5z" />
<glyph unicode="h" horiz-adv-x="511" d="M72 0v681l83 14v-238q23 9 49.5 14t52.5 5q56 0 92.5 -16t58.5 -44t31 -67.5t9 -86.5v-262h-83v244q0 43 -6 73.5t-19.5 49t-36 27t-55.5 8.5q-13 0 -27.5 -1.5t-27.5 -4t-23.5 -5t-14.5 -4.5v-387h-83z" />
<glyph unicode="i" horiz-adv-x="226" d="M59 605q0 25 15.5 39.5t38.5 14.5q22 0 38 -14.5t16 -39.5t-16 -40t-38 -15t-38 15t-16 40zM72 0v466h83v-466h-83z" />
<glyph unicode="j" horiz-adv-x="226" d="M-61 -158l11 68q9 -3 20.5 -4.5t21.5 -1.5q43 0 61.5 26.5t18.5 77.5v458h83v-457q0 -90 -41 -133.5t-118 -43.5q-11 0 -28 3t-29 7zM59 605q0 25 15.5 39.5t38.5 14.5q22 0 38 -14.5t16 -39.5t-16 -40t-38 -15t-38 15t-16 40z" />
<glyph unicode="k" horiz-adv-x="467" d="M72 0v681l83 14v-424l47 47l52 53l47 51l39 44h97l-45 -49l-50 -55l-52 -54l-50 -52q27 -21 57 -51t59 -65.5t55 -72t44 -67.5h-97q-19 31 -44 64t-51.5 63t-54.5 55t-53 42v-224h-83z" />
<glyph unicode="l" horiz-adv-x="244" d="M70 122v559l83 14v-560q0 -21 3.5 -34t12 -21t21.5 -12t33 -7l-12 -70q-77 2 -109 33.5t-32 97.5z" />
<glyph unicode="m" horiz-adv-x="771" d="M72 0v452q29 7 75.5 15.5t108.5 8.5q45 0 75.5 -12t51.5 -36l19.5 12.5t33 16t44 13.5t51.5 6q54 0 88 -16t53.5 -44.5t26 -68t6.5 -85.5v-262h-83v244q0 41 -4 70.5t-15.5 49t-30.5 29t-50 9.5q-42 0 -69 -11t-37 -20q7 -23 10.5 -51t3.5 -58v-262h-83v244 q0 41 -4.5 70.5t-16 49t-30.5 29t-49 9.5q-13 0 -27 -0.5t-27 -2t-23.5 -3.5t-14.5 -3v-393h-83z" />
<glyph unicode="n" horiz-adv-x="514" d="M72 0v452q29 7 76 15.5t109 8.5q56 0 92.5 -16t58.5 -44t31 -67.5t9 -86.5v-262h-83v244q0 43 -6 73.5t-19.5 49t-36 27t-55.5 8.5q-13 0 -27.5 -0.5t-27.5 -2t-23.5 -3.5t-14.5 -3v-393h-83z" />
<glyph unicode="o" horiz-adv-x="528" d="M46 233q0 55 16 100t45 77.5t69.5 50t87.5 17.5t87.5 -17.5t70 -50t45.5 -77.5t16 -100q0 -56 -16 -100.5t-45.5 -77t-69.5 -50t-88 -17.5q-47 0 -87.5 17.5t-69.5 50t-45 77t-16 100.5zM133 233q0 -79 35 -125t96 -46t96.5 46t35.5 125t-35.5 125t-96.5 46t-96 -46 t-35 -125z" />
<glyph unicode="p" horiz-adv-x="527" d="M72 -166v618q30 7 74 15.5t102 8.5q54 0 97 -17t73.5 -48.5t47 -76.5t16.5 -102q0 -53 -14 -97.5t-40.5 -77t-65.5 -50.5t-90 -18q-40 0 -71 11t-46 21v-187h-83zM155 99q15 -13 44 -24.5t63 -11.5q36 0 61.5 13t41.5 35.5t23 53.5t7 67q0 82 -40.5 125.5t-107.5 43.5 q-38 0 -58.5 -2.5t-33.5 -6.5v-293z" />
<glyph unicode="q" horiz-adv-x="527" d="M46 232q0 56 16.5 101.5t47 77t73.5 48.5t97 17q58 0 102 -8.5t74 -15.5v-618h-83v187q-15 -10 -46 -21t-72 -11q-50 0 -89 18t-66 50.5t-40.5 77t-13.5 97.5zM133 232q0 -36 7 -67t23 -53.5t41.5 -35.5t61.5 -13q34 0 63 11.5t44 24.5v293q-13 4 -34 6.5t-59 2.5 q-67 0 -107 -43.5t-40 -125.5z" />
<glyph unicode="r" horiz-adv-x="345" d="M72 0v446q30 11 73.5 20.5t98.5 9.5q11 0 24.5 -1.5t27 -3.5t25 -4.5t16.5 -4.5l-14 -72q-10 4 -33 8.5t-59 4.5q-23 0 -46 -5t-30 -6v-392h-83z" />
<glyph unicode="s" horiz-adv-x="399" d="M36 15l15 72l45.5 -16t83.5 -11q51 0 75.5 13.5t24.5 42.5q0 30 -24 48.5t-79 40.5l-52 22t-42.5 26.5t-28.5 37t-11 52.5q0 62 45.5 98.5t124.5 36.5q20 0 39.5 -2.5t36.5 -5.5t30 -6.5t21 -6.5l-16 -72q-13 7 -41.5 15t-69.5 8q-35 0 -61 -14t-26 -44q0 -15 6 -26.5 t18 -21t30 -17.5t43 -17q33 -13 59 -25t44.5 -28t28.5 -39t10 -56q0 -65 -48 -98t-137 -33q-62 0 -96.5 10.5t-47.5 15.5z" />
<glyph unicode="t" horiz-adv-x="360" d="M66 180v416l84 14v-144h176v-70h-176v-215q0 -35 5 -58t16 -36t27 -18t38 -5q38 0 60.5 8.5t31.5 11.5l16 -69q-13 -6 -44 -15.5t-72 -9.5q-47 0 -78 12t-49.5 36.5t-26.5 59.5t-8 82z" />
<glyph unicode="u" horiz-adv-x="514" d="M66 204v262h84v-244q0 -85 26.5 -121.5t90.5 -36.5q13 0 27.5 0.5t27 2t23 3t14.5 3.5v393h84v-453q-29 -7 -76 -15t-109 -8q-54 0 -90.5 16t-59 44.5t-32.5 67.5t-10 86z" />
<glyph unicode="v" horiz-adv-x="449" d="M14 466h90q11 -44 25.5 -93.5t31.5 -98.5l33 -95q17 -46 33 -81q15 36 32 81l34 95q17 49 31.5 98.5t24.5 93.5h86q-35 -131 -82 -251t-90 -215h-76q-44 95 -91 215t-82 251z" />
<glyph unicode="w" horiz-adv-x="696" d="M16 466h90q9 -42 21.5 -91.5t26.5 -98.5t29 -95t28 -80q15 42 30 89l29 95l25 94q12 46 21 87h69q8 -40 20 -86.5l25.5 -94.5l28 -95t29.5 -89q13 34 28 80l29.5 95t27 98.5t21.5 91.5h86q-35 -137 -74.5 -255.5t-80.5 -210.5h-73q-25 65 -53 147.5t-51 172.5 q-23 -90 -51 -172.5t-53 -147.5h-73q-41 92 -80.5 210.5t-74.5 255.5z" />
<glyph unicode="x" horiz-adv-x="457" d="M14 0q31 61 75 124l87 121l-154 221h94l111 -163l112 163h88l-150 -216l88 -123q45 -65 77 -127h-92q-10 20 -24 44t-31 50l-35 50l-35 48l-35 -48l-35 -51l-30 -50l-25 -43h-86z" />
<glyph unicode="y" horiz-adv-x="445" d="M2 -154l15 67q10 -4 25.5 -8t30.5 -4q49 0 77 21.5t51 71.5q-56 108 -105 228t-82 244h90q10 -40 24 -87t31 -96t36.5 -98.5t41.5 -94.5q34 94 59 186t47 190h86q-32 -132 -71.5 -253.5t-85.5 -226.5q-18 -40 -37 -69.5t-42.5 -48.5t-52.5 -27.5t-66 -8.5q-10 0 -20.5 1 t-21 3.5t-18.5 5t-12 4.5z" />
<glyph unicode="z" horiz-adv-x="422" d="M32 0v56q22 39 53 86.5t66 94.5l67 89l57 70h-230v70h336v-63l-50 -58l-66 -83l-71 -96q-35 -50 -62 -96h256v-70h-356z" />
<glyph unicode="{" horiz-adv-x="298" d="M36 236v64q22 0 37 7.5t25 20t15 28t5 31.5v161q0 37 8 65.5t28 48t52.5 30t81.5 10.5h3v-66q-51 0 -73 -18.5t-22 -70.5v-138q0 -59 -15.5 -91t-44.5 -50q29 -18 44.5 -50.5t15.5 -91.5v-138q0 -52 22 -70t73 -18v-66h-3q-48 0 -81 10t-53 29.5t-28 48.5t-8 65v162 q0 16 -5 31.5t-15 27.5t-25 20t-37 8z" />
<glyph unicode="|" horiz-adv-x="249" d="M86 -166v868h78v-868h-78z" />
<glyph unicode="}" horiz-adv-x="298" d="M7 -100q51 0 73 18t22 70v138q0 59 16 91.5t44 50.5q-29 18 -44.5 50t-15.5 91v138q0 52 -22 70.5t-73 18.5v66h4q48 0 81 -10.5t52.5 -30t27.5 -48t8 -65.5v-161q0 -16 5 -31.5t15.5 -28t25.5 -20t37 -7.5v-64q-22 0 -37 -8t-25.5 -20t-15.5 -27.5t-5 -31.5v-162 q0 -37 -8 -65.5t-27.5 -48t-52.5 -29.5t-81 -10h-4v66z" />
<glyph unicode="~" d="M38 217q4 17 11.5 39t21.5 41t36 32t53 13q27 0 50 -10.5t44 -23.5l46 -28q22 -14 48 -14q14 0 24 7t17 17t11.5 22t8.5 24l57 -16q-4 -18 -11.5 -39.5t-22 -41t-36 -32.5t-53.5 -13q-27 0 -49.5 11t-43.5 23l-47 29q-22 14 -47 14q-14 0 -24 -7t-17 -17t-11.5 -22.5 l-8.5 -23.5z" />
<glyph unicode="&#xa2;" d="M77 261q0 44 12 82.5t34 69t54.5 51t72.5 28.5v129h74v-125q52 -3 99 -20l-19 -69q-19 8 -43.5 13.5t-52.5 5.5q-70 0 -107 -42.5t-37 -122.5q0 -36 8.5 -66t27 -51.5t47 -33t69.5 -11.5q33 0 60 6t42 12l12 -68q-13 -7 -43 -13.5t-63 -8.5v-125h-74v129 q-43 8 -75.5 28.5t-54 50.5t-32.5 68.5t-11 82.5z" />
<glyph unicode="&#xa3;" d="M54 267v67h83v75q0 66 14 109.5t39.5 69t61.5 35.5t79 10q39 0 66 -7.5t52 -17.5l-21 -71q-47 22 -101 22q-24 0 -44 -7t-33.5 -24t-21.5 -46t-8 -72v-76h170v-67h-170v-7q0 -45 -3.5 -94.5t-10.5 -93.5h259v-72h-353q10 64 17.5 127t7.5 127v13h-83z" />
<glyph unicode="&#xa5;" d="M15 621h93q32 -70 69.5 -140t77.5 -134q39 65 76 134l70 140h90l-83 -152q-43 -78 -92 -155h123v-64h-145v-91h145v-64h-145v-95h-82v95h-145v64h145v91h-145v64h122l-92 156z" />
<glyph unicode="&#xa8;" horiz-adv-x="336" d="M31 605q0 23 16 38t36 15q21 0 36.5 -15t15.5 -38t-15.5 -38t-36.5 -15t-36.5 15t-15.5 38zM202 605q0 23 15.5 38t36.5 15t36.5 -15t15.5 -38t-16 -38t-36 -15q-21 0 -36.5 15t-15.5 38z" />
<glyph unicode="&#xa9;" horiz-adv-x="729" d="M58 311q0 76 25 136.5t67.5 102t98 63.5t116.5 22t116.5 -22t97.5 -63.5t67 -102t25 -136.5t-25 -136.5t-67 -102.5t-97.5 -63.5t-116.5 -21.5t-116.5 21.5t-98 63.5t-67.5 102.5t-25 136.5zM124 311q0 -59 17.5 -108t49.5 -84t76.5 -53.5t97.5 -18.5t97 18.5t76 53.5 t50 84t18 108t-18 108t-50 84t-76 53.5t-97 18.5t-97.5 -18.5t-76.5 -53.5t-49.5 -84t-17.5 -108zM203 311q0 44 14 78t37.5 57.5t54.5 36t66 12.5q23 0 42.5 -3.5t34 -8.5t24 -9.5t12.5 -7.5l-20 -54q-11 6 -35 14.5t-55 8.5q-46 0 -76.5 -31.5t-30.5 -92.5q0 -56 28 -91 t82 -35q35 0 57.5 7.5t35.5 13.5l17 -54q-4 -3 -14.5 -7.5t-26 -8.5t-34.5 -7.5t-41 -3.5q-39 0 -70 13t-54 36t-35.5 57.5t-12.5 79.5z" />
<glyph unicode="&#xab;" horiz-adv-x="447" d="M27 254l140 198l58 -31l-100 -167l100 -166l-58 -32zM213 254l140 198l58 -31l-100 -167l100 -166l-58 -32z" />
<glyph unicode="&#xad;" horiz-adv-x="267" d="M23 229v78h222v-78h-222z" />
<glyph unicode="&#xae;" horiz-adv-x="729" d="M58 311q0 76 25 136.5t67.5 102t98 63.5t116.5 22t116.5 -22t97.5 -63.5t67 -102t25 -136.5t-25 -136.5t-67 -102.5t-97.5 -63.5t-116.5 -21.5t-116.5 21.5t-98 63.5t-67.5 102.5t-25 136.5zM124 311q0 -59 17.5 -108t49.5 -84t76.5 -53.5t97.5 -18.5t97 18.5t76 53.5 t50 84t18 108t-18 108t-50 84t-76 53.5t-97 18.5t-97.5 -18.5t-76.5 -53.5t-49.5 -84t-17.5 -108zM239 133v347q24 5 51 8t50 3q77 0 117 -28.5t40 -87.5q0 -33 -17.5 -57.5t-49.5 -37.5q9 -11 20.5 -27t24.5 -36l25 -41q13 -22 22 -43h-69q-21 40 -46 76.5t-44 57.5h-60 v-134h-64zM303 319h34q40 0 67 11t27 46q0 33 -25.5 46t-61.5 13h-20.5t-20.5 -1v-115z" />
<glyph unicode="&#xb4;" horiz-adv-x="336" d="M114 557l114 138l54 -53l-126 -122z" />
<glyph unicode="&#xb8;" horiz-adv-x="336" d="M62 -158l10 51q11 -4 23 -6.5t27 -2.5q32 0 32 21q0 10 -10 16.5t-28 13.5l-6 3q3 9 8 21l11 24q5 12 10 21l8 14h57l-13 -25q-8 -15 -13 -26q26 -13 38 -27.5t12 -43.5q0 -10 -4.5 -21.5t-15.5 -21.5t-29 -16t-44 -6q-23 0 -42 3.5t-31 7.5z" />
<glyph unicode="&#xbb;" horiz-adv-x="447" d="M36 88l99 166l-99 167l58 31l140 -198l-140 -198zM222 88l99 166l-99 167l58 31l140 -198l-140 -198z" />
<glyph unicode="&#xd0;" horiz-adv-x="650" d="M17 290v68h72v254q37 9 82 12t83 3q76 0 139.5 -19t109 -58t71 -98.5t25.5 -140.5t-25.5 -140.5t-71 -98.5t-109 -58t-139.5 -19q-38 0 -83.5 3t-81.5 12v280h-72zM176 73q8 -1 28 -1.5t57 -0.5q124 0 184.5 63t60.5 177t-61 177t-184 63q-37 0 -57 -1t-28 -2v-190h116 v-68h-116v-217z" />
<glyph unicode="&#x106;" horiz-adv-x="555" d="M52 311q0 78 23.5 138.5t64 101.5t94.5 62.5t115 21.5q39 0 69.5 -5t53.5 -12.5t37 -14.5t20 -11l-25 -71q-8 5 -23.5 11t-35 12.5t-42 10.5t-45.5 4q-49 0 -89 -17t-67.5 -49t-42.5 -78.5t-15 -103.5q0 -56 13 -101.5t39 -78t65 -50.5t91 -18q60 0 99.5 12.5t59.5 22.5 l22 -72q-6 -4 -22 -11t-40.5 -13t-56.5 -10.5t-70 -4.5q-65 0 -119 21.5t-92.5 62.5t-59.5 101.5t-21 138.5zM269 697l114 138l54 -53l-126 -122z" />
<glyph unicode="&#x107;" horiz-adv-x="416" d="M46 232q0 54 15.5 98.5t44 77.5t70.5 51.5t93 18.5q31 0 62.5 -5.5t60.5 -17.5l-19 -71q-19 9 -43.5 14.5t-52.5 5.5q-70 0 -107 -44t-37 -128q0 -38 8.5 -69t26.5 -53.5t47 -34.5t70 -12q33 0 60 6t42 13l12 -69q-7 -4 -20.5 -8.5t-30.5 -7.5t-36.5 -5.5t-37.5 -2.5 q-56 0 -98.5 18t-72 50.5t-43.5 76.5t-14 98zM197 557l114 138l54 -53l-126 -122z" />
<glyph unicode="&#x10c;" horiz-adv-x="555" d="M52 311q0 78 23.5 138.5t64 101.5t94.5 62.5t115 21.5q39 0 69.5 -5t53.5 -12.5t37 -14.5t20 -11l-25 -71q-8 5 -23.5 11t-35 12.5t-42 10.5t-45.5 4q-49 0 -89 -17t-67.5 -49t-42.5 -78.5t-15 -103.5q0 -56 13 -101.5t39 -78t65 -50.5t91 -18q60 0 99.5 12.5t59.5 22.5 l22 -72q-6 -4 -22 -11t-40.5 -13t-56.5 -10.5t-70 -4.5q-65 0 -119 21.5t-92.5 62.5t-59.5 101.5t-21 138.5zM207 793l35 40l86 -79l87 79l35 -40l-122 -128z" />
<glyph unicode="&#x10d;" horiz-adv-x="416" d="M46 232q0 54 15.5 98.5t44 77.5t70.5 51.5t93 18.5q31 0 62.5 -5.5t60.5 -17.5l-19 -71q-19 9 -43.5 14.5t-52.5 5.5q-70 0 -107 -44t-37 -128q0 -38 8.5 -69t26.5 -53.5t47 -34.5t70 -12q33 0 60 6t42 13l12 -69q-7 -4 -20.5 -8.5t-30.5 -7.5t-36.5 -5.5t-37.5 -2.5 q-56 0 -98.5 18t-72 50.5t-43.5 76.5t-14 98zM136 653l35 40l86 -79l87 79l35 -40l-122 -128z" />
<glyph unicode="&#x110;" horiz-adv-x="650" d="M17 290v68h72v254q37 9 82 12t83 3q76 0 139.5 -19t109 -58t71 -98.5t25.5 -140.5t-25.5 -140.5t-71 -98.5t-109 -58t-139.5 -19q-38 0 -83.5 3t-81.5 12v280h-72zM176 73q8 -1 28 -1.5t57 -0.5q124 0 184.5 63t60.5 177t-61 177t-184 63q-37 0 -57 -1t-28 -2v-190h116 v-68h-116v-217z" />
<glyph unicode="&#x111;" horiz-adv-x="527" d="M46 232q0 54 13.5 98.5t40.5 76t66 49t89 17.5q40 0 71.5 -10.5t46.5 -20.5v108h-159v62h159v69l83 14v-83h66v-62h-66v-537q-29 -8 -73.5 -16t-102.5 -8q-54 0 -97 16.5t-73.5 48.5t-47 77t-16.5 101zM133 232q0 -82 40 -125.5t107 -43.5q34 0 57 3t36 7v291 q-15 13 -44 24.5t-63 11.5q-36 0 -61.5 -12.5t-41.5 -35t-23 -53.5t-7 -67z" />
<glyph unicode="&#x160;" horiz-adv-x="476" d="M30 30l26 72q21 -12 62.5 -26t102.5 -14q136 0 137 93q0 29 -12.5 49t-33 35t-47 25.5l-55.5 21.5q-34 12 -64.5 26.5t-53 34.5t-35.5 48t-13 67q0 82 55.5 127.5t153.5 45.5q56 0 102 -12t68 -26l-28 -71q-19 12 -56 23t-86 11q-25 0 -46.5 -5.5t-38 -16t-25.5 -27 t-9 -39.5q0 -25 9.5 -42t27.5 -30t42 -23.5t52 -21.5q40 -16 74 -32.5t58.5 -38.5t38 -53t13.5 -75q0 -82 -59.5 -125.5t-168.5 -43.5q-37 0 -67.5 4.5t-55 11.5t-41.5 14.5t-27 12.5zM126 793l35 40l86 -79l87 79l35 -40l-122 -128z" />
<glyph unicode="&#x161;" horiz-adv-x="399" d="M36 15l15 72l45.5 -16t83.5 -11q51 0 75.5 13.5t24.5 42.5q0 30 -24 48.5t-79 40.5l-52 22t-42.5 26.5t-28.5 37t-11 52.5q0 62 45.5 98.5t124.5 36.5q20 0 39.5 -2.5t36.5 -5.5t30 -6.5t21 -6.5l-16 -72q-13 7 -41.5 15t-69.5 8q-35 0 -61 -14t-26 -44q0 -15 6 -26.5 t18 -21t30 -17.5t43 -17q33 -13 59 -25t44.5 -28t28.5 -39t10 -56q0 -65 -48 -98t-137 -33q-62 0 -96.5 10.5t-47.5 15.5zM78 653l35 40l86 -79l87 79l35 -40l-122 -128z" />
<glyph unicode="&#x17d;" horiz-adv-x="513" d="M30 0v58q19 36 44 79l55 88l60 90l62 88l60 79q29 37 54 65h-319v74h425v-69l-48 -56l-57 -73l-63 -84l-63 -89q-31 -45 -59 -90t-50 -86h349v-74h-450zM140 793l35 40l86 -79l87 79l35 -40l-122 -128z" />
<glyph unicode="&#x17e;" horiz-adv-x="422" d="M32 0v56q22 39 53 86.5t66 94.5l67 89l57 70h-230v70h336v-63l-50 -58l-66 -83l-71 -96q-35 -50 -62 -96h256v-70h-356zM86 653l35 40l86 -79l87 79l35 -40l-122 -128z" />
<glyph unicode="&#x2c6;" horiz-adv-x="336" d="M47 561l121 128l122 -128l-35 -40l-87 79l-86 -79z" />
<glyph unicode="&#x2c7;" horiz-adv-x="336" d="M47 653l35 40l86 -79l87 79l35 -40l-122 -128z" />
<glyph unicode="&#x2da;" horiz-adv-x="336" d="M76 607q0 22 7.5 38t20 28t29.5 18.5t35 6.5q19 0 35.5 -6.5t29.5 -18.5t20.5 -28.5t7.5 -37.5q0 -22 -7.5 -38.5t-20.5 -28.5t-29.5 -18.5t-35.5 -6.5t-35.5 6.5t-29 18.5t-20 28.5t-7.5 38.5zM121 607q0 -23 14 -36.5t33 -13.5q20 0 34 13t14 37q0 23 -14 36t-34 13 t-33.5 -13t-13.5 -36z" />
<glyph unicode="&#x2dc;" horiz-adv-x="336" d="M21 573q4 11 11.5 25t19.5 26t27.5 20.5t34.5 8.5q18 0 33.5 -6t29.5 -14q15 -7 26 -10.5t21 -3.5q15 0 28 12.5t20 27.5l43 -22q-4 -11 -11.5 -25t-19.5 -26.5t-27.5 -21t-34.5 -8.5q-18 0 -33.5 6.5t-29.5 13.5q-15 7 -26 10.5t-21 3.5q-15 0 -28 -12.5t-20 -26.5z" />
<glyph unicode="&#x2000;" horiz-adv-x="417" />
<glyph unicode="&#x2001;" horiz-adv-x="835" />
<glyph unicode="&#x2002;" horiz-adv-x="417" />
<glyph unicode="&#x2003;" horiz-adv-x="835" />
<glyph unicode="&#x2004;" horiz-adv-x="277" />
<glyph unicode="&#x2005;" horiz-adv-x="208" />
<glyph unicode="&#x2006;" horiz-adv-x="138" />
<glyph unicode="&#x2007;" horiz-adv-x="138" />
<glyph unicode="&#x2008;" horiz-adv-x="103" />
<glyph unicode="&#x2009;" horiz-adv-x="166" />
<glyph unicode="&#x200a;" horiz-adv-x="45" />
<glyph unicode="&#x2010;" horiz-adv-x="267" d="M23 229v78h222v-78h-222z" />
<glyph unicode="&#x2011;" horiz-adv-x="267" d="M23 229v78h222v-78h-222z" />
<glyph unicode="&#x2012;" horiz-adv-x="267" d="M23 229v78h222v-78h-222z" />
<glyph unicode="&#x2013;" horiz-adv-x="444" d="M-2 233v71h448v-71h-448z" />
<glyph unicode="&#x2014;" horiz-adv-x="892" d="M-2 233v71h896v-71h-896z" />
<glyph unicode="&#x2018;" horiz-adv-x="210" d="M54 466v19q0 9 1 19q4 47 20.5 92.5t40.5 84.5l65 -21q-19 -39 -28.5 -79.5t-9.5 -75.5q0 -9 0.5 -19t1.5 -20h-91z" />
<glyph unicode="&#x2019;" horiz-adv-x="210" d="M30 478q19 40 28 80t9 75q0 9 -0.5 19t-1.5 20h92v-19q0 -9 -1 -19q-4 -47 -21 -92t-41 -85z" />
<glyph unicode="&#x201a;" horiz-adv-x="210" d="M30 -92q19 39 28 79.5t9 75.5q0 9 -0.5 19t-1.5 20h92v-19q0 -9 -1 -18q-4 -47 -21 -92.5t-41 -85.5z" />
<glyph unicode="&#x201c;" horiz-adv-x="373" d="M54 466v19q0 9 1 19q4 47 20.5 92.5t40.5 84.5l65 -21q-19 -39 -28.5 -79.5t-9.5 -75.5q0 -9 0.5 -19t1.5 -20h-91zM217 466v19q0 9 1 19q4 47 20.5 92.5t40.5 84.5l65 -21q-19 -39 -28.5 -79.5t-9.5 -75.5q0 -9 0.5 -19t1.5 -20h-91z" />
<glyph unicode="&#x201d;" horiz-adv-x="373" d="M30 478q19 40 28 80t9 75q0 9 -0.5 19t-1.5 20h92v-19q0 -9 -1 -19q-4 -47 -21 -92t-41 -85zM193 478q19 40 28 80t9 75q0 9 -0.5 19t-1.5 20h92v-19q0 -9 -1 -19q-4 -47 -21 -92t-41 -85z" />
<glyph unicode="&#x201e;" horiz-adv-x="373" d="M30 -92q19 39 28 79.5t9 75.5q0 9 -0.5 19t-1.5 20h92v-19q0 -9 -1 -18q-4 -47 -21 -92.5t-41 -85.5zM193 -92q19 39 28 79.5t9 75.5q0 9 -0.5 19t-1.5 20h92v-19q0 -9 -1 -18q-4 -47 -21 -92.5t-41 -85.5z" />
<glyph unicode="&#x2026;" horiz-adv-x="892" d="M88 48q0 24 16 42t44 18t44 -17.5t16 -42.5q0 -24 -16 -42t-44 -18t-44 18t-16 42zM386 48q0 24 16 42t44 18t44 -17.5t16 -42.5q0 -24 -16 -42t-44 -18t-44 18t-16 42zM684 48q0 24 16 42t44 18t44 -17.5t16 -42.5q0 -24 -16 -42t-44 -18t-44 18t-16 42z" />
<glyph unicode="&#x202f;" horiz-adv-x="166" />
<glyph unicode="&#x2039;" horiz-adv-x="260" d="M27 254l140 198l58 -31l-100 -167l100 -166l-58 -32z" />
<glyph unicode="&#x203a;" horiz-adv-x="260" d="M36 88l99 166l-99 167l58 31l140 -198l-140 -198z" />
<glyph unicode="&#x205f;" horiz-adv-x="208" />
<glyph unicode="&#x20ac;" d="M40 203v65h74q-1 10 -1 21v22v24q0 12 1 23h-74v65h83q21 105 81.5 157.5t155.5 52.5q39 0 65.5 -5t52.5 -13l-18 -72q-22 8 -47.5 13t-52.5 5q-34 0 -59.5 -10t-44 -28t-30 -43.5t-17.5 -56.5h209l-13 -65h-205q-1 -12 -1 -23v-24v-22q0 -11 1 -21h187l-12 -65h-168 q15 -80 55 -111t100 -31q38 0 65 7t49 17l18 -71q-15 -8 -53 -17t-83 -9q-105 0 -162.5 57t-74.5 158h-81z" />
<glyph unicode="&#x2122;" horiz-adv-x="680" d="M21 566v55h250v-55h-94v-243h-62v243h-94zM283 323q7 110 12.5 181t12.5 117h59l18 -37l24 -46l25 -51l26 -51l25 51l26 51l23 46l18 37h59q7 -46 12.5 -117t12.5 -181h-63q-1 22 -1.5 47.5t-2 51t-3.5 50.5t-3 47q-10 -17 -22 -40l-23 -45l-21 -42l-16 -32h-44 q-5 12 -15 32l-22 42l-23 45l-21 40q-2 -22 -4 -47t-3 -50.5l-2 -51t-2 -47.5h-62z" />
<glyph unicode="&#xe000;" horiz-adv-x="465" d="M0 465h465v-465h-465v465z" />
</font>
</defs>
</svg>
